<?xml version="1.0" standalone="no"?><!DOCTYPE svg PUBLIC "-//W3C//DTD SVG 1.1//EN" "http://www.w3.org/Graphics/SVG/1.1/DTD/svg11.dtd"><svg t="1627116339997" class="icon" viewBox="0 0 1024 1024" version="1.1" xmlns="http://www.w3.org/2000/svg" p-id="827" xmlns:xlink="http://www.w3.org/1999/xlink" width="200" height="200"><defs><style type="text/css">@font-face { font-family: feedback-iconfont; src: url("//at.alicdn.com/t/font_1031158_1uhr8ri0pk5.eot?#iefix") format("embedded-opentype"), url("//at.alicdn.com/t/font_1031158_1uhr8ri0pk5.woff2") format("woff2"), url("//at.alicdn.com/t/font_1031158_1uhr8ri0pk5.woff") format("woff"), url("//at.alicdn.com/t/font_1031158_1uhr8ri0pk5.ttf") format("truetype"), url("//at.alicdn.com/t/font_1031158_1uhr8ri0pk5.svg#iconfont") format("svg"); }
</style></defs><path d="M868.4 408.8H676.2L812.1 273c6.6-6.6 6.6-17.5 0-24.1L740 176.8c-6.6-6.6-17.5-6.6-24.1 0L580 312.6V120.5c0-9.4-7.7-17.1-17.1-17.1H461c-9.4 0-17.1 7.7-17.1 17.1v192.1L308.1 176.8c-6.6-6.6-17.5-6.6-24.1 0l-72.1 72.1c-6.6 6.6-6.6 17.5 0 24.1l135.8 135.8H155.6c-9.4 0-17.1 7.7-17.1 17.1v101.9c0 9.4 7.7 17.1 17.1 17.1h192.1L211.9 680.7c-6.6 6.6-6.6 17.5 0 24.1l72.1 72.1c6.6 6.6 17.5 6.6 24.1 0L444 641.1v192.1c0 9.4 7.7 17.1 17.1 17.1H563c9.4 0 17.1-7.7 17.1-17.1V641.1l135.8 135.8c6.6 6.6 17.5 6.6 24.1 0l72.1-72.1c6.6-6.6 6.6-17.5 0-24.1L676.2 544.9h192.1c9.4 0 17.1-7.7 17.1-17.1V425.9c0-9.4-7.7-17.1-17-17.1z" fill="#9377FC" p-id="828"></path><path d="M512 476.9m-296.4 0a296.4 296.4 0 1 0 592.8 0 296.4 296.4 0 1 0-592.8 0Z" fill="#9377FC" p-id="829"></path><path d="M512 476.9m-90 0a90 90 0 1 0 180 0 90 90 0 1 0-180 0Z" fill="#FFFFFF" p-id="830"></path></svg>